HIERARCHY
ROOT root     
{
	OFFSET 0.0000 0.0000 0.0000
	CHANNELS 6 Xposition Yposition Zposition Zrotation Yrotation Xrotation
	JOINT pelvis   
	{
		OFFSET 0.0000 0.0000 0.0000
		CHANNELS 3 Zrotation Yrotation Xrotation
		JOINT thorax   
		{
			OFFSET 0.0000 23.0750 -5.0000
			CHANNELS 3 Zrotation Yrotation Xrotation
			JOINT rclavicle
			{
				OFFSET 0.0000 28.0009 0.0000
				CHANNELS 3 Zrotation Yrotation Xrotation
				JOINT rhumerus 
				{
					OFFSET -18.5725 5.5939 0.0000
					CHANNELS 3 Zrotation Yrotation Xrotation
					JOINT rradius  
					{
						OFFSET -24.8459 0.0000 0.0000
						CHANNELS 3 Zrotation Yrotation Xrotation
						JOINT rhand    
						{
							OFFSET -24.5477 0.0000 0.0000
							CHANNELS 3 Zrotation Yrotation Xrotation
							End Site
							{
								OFFSET -8.1826 0.0000 0.0000
							}
						}
					}
				}
			}
			JOINT lclavicle
			{
				OFFSET 0.0000 28.0009 0.0000
				CHANNELS 3 Zrotation Yrotation Xrotation
				JOINT lhumerus 
				{
					OFFSET 18.5725 5.5939 0.0000
					CHANNELS 3 Zrotation Yrotation Xrotation
					JOINT lradius  
					{
						OFFSET 24.8459 0.0000 0.0000
						CHANNELS 3 Zrotation Yrotation Xrotation
						JOINT lhand    
						{
							OFFSET 24.5477 0.0000 0.0000
							CHANNELS 3 Zrotation Yrotation Xrotation
							End Site
							{
								OFFSET 8.1826 0.0000 0.0000
							}
						}
					}
				}
			}
			JOINT head     
			{
				OFFSET 0.0000 35.2030 0.0000
				CHANNELS 3 Zrotation Yrotation Xrotation
				End Site
				{
					OFFSET 0.0000 11.7343 0.0000
				}
			}
		}
		JOINT rfemur   
		{
			OFFSET -8.2817 0.0000 0.0000
			CHANNELS 3 Zrotation Yrotation Xrotation
			JOINT rtibia   
			{
				OFFSET 0.0000 -43.3627 0.0000
				CHANNELS 3 Zrotation Yrotation Xrotation
				JOINT rfoot    
				{
					OFFSET 0.0000 -38.2947 0.0000
					CHANNELS 3 Zrotation Yrotation Xrotation
					JOINT rtoes    
					{
						OFFSET 0.0000 0.0000 16.6054
						CHANNELS 3 Zrotation Yrotation Xrotation
						End Site
						{
							OFFSET 0.0000 0.0000 5.5351
						}
					}
				}
			}
		}
		JOINT lfemur   
		{
			OFFSET 8.2817 0.0000 0.0000
			CHANNELS 3 Zrotation Yrotation Xrotation
			JOINT ltibia   
			{
				OFFSET 0.0000 -43.3627 0.0000
				CHANNELS 3 Zrotation Yrotation Xrotation
				JOINT lfoot    
				{
					OFFSET 0.0000 -38.2947 0.0000
					CHANNELS 3 Zrotation Yrotation Xrotation
					JOINT ltoes    
					{
						OFFSET 0.0000 0.0000 16.6054
						CHANNELS 3 Zrotation Yrotation Xrotation
						End Site
						{
							OFFSET 0.0000 0.0000 5.5351
						}
					}
				}
			}
		}
	}
}
MOTION
Frames: 13
Frame Time: .0333333
-78.771 86.142 -4.6591 172.767 88.6613 -162.617 0 -0 0 -1.49107 -18.5533 18.2936 18.1581 -17.0778 5.62214e-06 52.7244 -36.2732 16.3058 180 86.6578 180 -8.18857 14.8634 -1.06995 -10.3944 12.9678 -1.90754e-05 -41.9801 1.06296 3.49003 -180 -62.1506 180 4.74069 -0.0687997 -0.00280007 5.36826 4.70082 -8.32407 10.5372 -7.6074 -50.9737 -0 -0 20.997 -8.73388e-06 -5.02944 3.79205 -0.333498 -5.06437e-06 -59.8215 -1.80388 11.1388 -20.4344 -0 -0 40.8562 1.22777e-06 1.64688 9.86052 0.282093 2.65325e-06 -70.2395 
-77.471 86.074 -4.6141 166.186 88.4497 -169.329 0 -0 0 -1.25753 -18.8068 18.276 18.1771 -17.3294 -2.47447e-05 53.2927 -36.2818 15.702 -180 86.3874 -180 -8.1709 14.9201 -1.0717 -10.0667 12.9935 3.24985e-05 -42.1343 1.77804 4.10889 -180 -61.8909 180 4.39527 -0.0696993 -0.00270003 5.22323 4.61286 -8.16663 10.6542 -7.90241 -50.3676 -0 -0 20.1652 -5.93886e-06 -6.05685 3.93349 -0.417004 -2.32208e-06 -58.8622 -1.66558 11.1831 -20.081 -0 -0 41.6825 -1.96755e-06 1.3894 10.8709 0.262101 6.06189e-06 -69.7758 
-76.171 85.934 -4.5775 159.578 88.29 -176.051 0 -0 0 -1.06425 -19.0228 18.2325 18.2151 -17.5768 -3.39695e-05 53.8481 -36.1989 15.1463 180 86.1376 180 -8.21518 14.967 -1.08097 -9.7579 13.0297 -2.51747e-05 -42.3197 2.5032 4.76621 -180 -61.6896 180 4.0148 -0.0699001 -0.00239999 5.05868 4.49799 -7.9787 10.6532 -8.1628 -49.8084 -0 -0 19.692 2.64901e-06 -7.03468 4.06274 -0.500899 4.63454e-06 -57.4783 -1.57936 11.222 -19.7916 -0 -0 42.6796 -7.11986e-06 1.26966 11.6932 0.257401 -1.89512e-06 -68.7718 
-74.875 85.723 -4.5474 153.225 88.1396 177.492 0 -0 0 -0.895634 -19.1999 18.1575 18.2718 -17.8178 2.60714e-05 54.3882 -36.0322 14.6342 -180 85.8993 -180 -8.30642 15.0018 -1.09555 -9.47176 13.0698 2.11392e-05 -42.5349 3.24172 5.45727 -180 -61.555 180 3.62056 -0.0752999 -0.00239996 4.87236 4.35854 -7.77164 10.5429 -8.37701 -49.3258 -0 -0 19.5967 9.07016e-08 -7.91312 4.17369 -0.579593 1.70719e-06 -55.7083 -1.53719 11.2617 -19.5832 -0 -0 43.8544 7.69198e-06 1.30335 12.3121 0.278001 2.93343e-06 -67.2434 
-73.587 85.442 -4.5207 147.426 87.9513 171.591 0 -0 0 -0.73309 -19.3412 18.0473 18.349 -18.049 3.25888e-05 54.9102 -35.7932 14.1514 180 85.6521 180 -8.42818 15.0203 -1.11306 -9.21703 13.1126 1.37425e-06 -42.7701 3.99312 6.1757 -180 -61.4799 180 3.23857 -0.0887996 -0.00249999 4.66358 4.19695 -7.56203 10.3385 -8.53295 -48.9523 -0 -0 19.9081 -1.59609e-06 -8.65435 4.23674 -0.644209 -2.94271e-07 -53.5389 -1.5255 11.3097 -19.4688 -0 -0 45.2153 -1.41063e-06 1.4986 12.7123 0.329905 -2.94432e-06 -65.2274 
-72.311 85.094 -4.4946 142.415 87.77 166.497 0 -0 0 -0.556568 -19.4472 17.9087 18.4499 -18.2608 5.25439e-05 55.4149 -35.487 13.6849 180 85.3725 180 -8.56689 15.0305 -1.13221 -9.01032 13.1362 -1.63229e-05 -43.0108 4.77767 6.90055 -180 -61.4476 180 2.89684 -0.111401 -0.00280006 4.43286 4.01487 -7.37078 10.0769 -8.64447 -48.7144 -0 -0 20.6524 -1.64928e-06 -9.21404 4.20065 -0.680801 -7.79853e-06 -50.9249 -1.52656 11.3699 -19.4506 -0 -0 46.7586 -9.18767e-06 1.85627 12.8884 0.414202 -3.3408e-06 -62.836 
-71.051 84.682 -4.4659 138.356 87.5973 162.378 0 -0 0 -0.345131 -19.5069 17.7403 18.589 -18.4575 8.56382e-05 55.8919 -35.1161 13.2219 180 85.0631 180 -8.707 15.0165 -1.14978 -8.85555 13.1498 -3.88367e-05 -43.2554 5.5665 7.63671 -180 -61.4712 180 2.61623 -0.1372 -0.0030999 4.18545 3.80514 -7.22054 9.78331 -8.70536 -48.6529 -0 -0 21.859 3.21862e-06 -9.58756 4.00253 -0.67552 4.42507e-06 -47.7814 -1.52657 11.448 -19.55 -0 -0 48.4871 -3.05245e-06 2.36524 12.8271 0.525404 -5.17438e-06 -60.0999 
-69.804 84.214 -4.4336 135.211 87.4179 159.178 0 -0 0 -0.0919048 -19.5278 17.5674 18.7782 -18.6178 2.42069e-05 56.3403 -34.6818 12.7413 180 84.7273 180 -8.84006 14.9921 -1.1655 -8.77465 13.1248 2.58938e-05 -43.4841 6.39064 8.35218 -180 -61.5235 180 2.41804 -0.164895 -0.00349978 3.92822 3.57097 -7.13642 9.51624 -8.77304 -48.7745 -0 -0 23.5351 2.71051e-06 -9.73041 3.56902 -0.611606 -3.60276e-06 -44.0458 -1.509 11.536 -19.7448 -0 -0 50.3775 -1.27275e-05 3.00977 12.544 0.654294 4.59249e-06 -57.2164 
-68.571 83.694 -4.3975 132.911 87.2656 156.826 0 -0 0 0.205922 -19.5095 17.4172 19.0345 -18.7284 0.000113445 56.7447 -34.1803 12.2321 -180 84.3313 -180 -8.9599 14.9575 -1.17855 -8.78022 13.052 1.10994e-05 -43.6869 7.25387 9.02941 -180 -61.587 180 2.31144 -0.193003 -0.00389994 3.67159 3.30997 -7.14082 9.31753 -8.88876 -49.0781 -0 -0 25.6623 1.3284e-06 -9.63833 2.84613 -0.483103 -2.32014e-06 -39.735 -1.46244 11.625 -20.0211 -0 -0 52.4071 1.74159e-05 3.766 12.0575 0.787707 -4.48511e-07 -54.3634 
-67.354 83.129 -4.3565 131.303 87.1152 155.157 0 -0 0 0.547941 -19.4399 17.3038 19.386 -18.7901 0.000166423 57.0888 -33.5956 11.6836 -180 83.9093 -180 -9.06982 14.8976 -1.18822 -8.86768 12.9394 -1.96797e-05 -43.8725 8.1264 9.67454 -180 -61.6755 180 2.29599 -0.209203 -0.00420002 3.42948 3.01218 -7.24828 9.19439 -9.05023 -49.5601 -0 -0 28.2168 1.81631e-06 -9.36393 1.78944 -0.294999 -8.64078e-07 -34.7495 -1.38181 11.7115 -20.3781 -0 -0 54.5642 -6.74262e-06 4.59638 11.3704 0.90812 -3.32797e-06 -51.5096 
-66.146 82.529 -4.3104 130.317 87.0246 154.094 0 -0 0 0.926278 -19.3272 17.2672 19.8453 -18.7725 -2.49264e-05 57.3583 -32.9157 11.0949 -180 83.4428 -180 -9.17449 14.8274 -1.1963 -9.05174 12.7686 4.7175e-06 -44.033 9.03228 10.2566 -180 -61.7708 180 2.362 -0.222697 -0.00459989 3.2142 2.68673 -7.47293 9.17335 -9.29167 -50.1606 -0 -0 31.0914 -1.86832e-07 -8.94339 0.424203 -0.0668002 -3.42056e-08 -29.4619 -1.25465 11.7819 -20.7845 -0 -0 56.812 -5.36251e-06 5.46835 10.528 1.00209 -9.76744e-06 -48.922 
-64.95 81.903 -4.2566 129.974 86.9424 153.631 0 -0 0 1.34054 -19.1685 17.3255 20.427 -18.6622 2.97541e-06 57.535 -32.1181 10.4668 180 82.9575 180 -9.28725 14.741 -1.20396 -9.32923 12.5455 4.67757e-05 -44.1819 9.95641 10.7737 -180 -61.8834 180 2.48938 -0.233699 -0.00509997 3.0365 2.33427 -7.81636 9.24682 -9.58656 -50.8258 -0 -0 34.181 1.50856e-06 -8.46435 -1.2041 0.179199 1.26039e-06 -24.1589 -1.07013 11.8317 -21.2364 -0 -0 59.1338 5.71089e-06 6.34074 9.55557 1.0568 1.55478e-06 -46.6312 
-63.765 81.262 -4.1912 130.252 86.9222 153.761 0 -0 0 1.7931 -18.9633 17.4912 21.1355 -18.4415 -5.60502e-05 57.604 -31.1822 9.81213 -180 82.4832 -180 -9.42313 14.6383 -1.21297 -9.69536 12.2794 3.52167e-05 -44.3347 10.8872 11.2231 -180 -62.0283 180 2.65167 -0.2472 -0.00569996 2.90383 1.96378 -8.27189 9.4049 -9.89647 -51.4925 -0 -0 37.3537 7.82397e-07 -8.01178 -3.01266 0.423794 -5.77541e-07 -19.3186 -0.815364 11.862 -21.7339 -0 -0 61.508 -2.99409e-06 7.17438 8.48161 1.06361 6.65204e-07 -44.6422 
